{"glyphs":{":":{"x_min":0,"x_max":434,"ha":434,"o":"m 208 443 l 209 480 q 209 498 220 514 q 230 531 250 541 q 269 551 291 551 q 351 551 351 485 q 351 434 325 413 q 299 391 269 391 q 242 391 225 406 q 208 420 208 443 z m 163 133 q 163 237 248 237 q 307 237 307 165 q 307 105 281 83 q 255 60 223 60 q 163 60 163 133 z"},"$":{"x_min":0,"x_max":693,"ha":693,"o":"m 387 -15 l 368 -137 q 359 -189 303 -189 q 280 -189 270 -174 q 259 -158 263 -137 l 280 -29 l 261 -30 q 179 -34 116 -12 q 53 10 53 48 q 53 77 73 102 q 94 126 142 126 q 163 126 207 112 q 253 98 267 98 q 280 98 299 100 l 333 315 q 245 321 188 355 q 131 390 131 443 q 131 518 206 592 q 281 667 395 700 l 408 781 q 417 838 470 838 q 521 838 513 781 l 502 716 q 560 713 623 690 q 687 667 687 636 q 687 611 663 588 q 640 564 608 564 q 583 564 544 574 q 510 582 481 584 l 458 434 l 468 434 q 542 434 609 389 q 677 344 677 253 q 677 48 387 -15 z m 374 563 q 281 530 281 482 q 281 448 354 439 z m 409 125 q 532 155 532 234 q 532 302 438 311 z"},"?":{"x_min":0,"x_max":566,"ha":566,"o":"m 241 170 q 216 170 198 187 q 181 204 181 227 q 181 287 323 366 q 466 445 466 506 q 466 545 429 582 q 391 619 344 619 q 316 619 266 589 q 215 559 195 559 q 171 559 154 576 q 138 593 138 616 q 138 669 226 710 q 314 751 364 751 q 462 751 532 683 q 603 615 603 527 q 603 456 560 399 q 516 342 473 316 q 342 238 297 196 q 270 170 241 170 z m 116 21 q 116 54 144 91 q 173 127 214 127 q 239 127 255 112 q 271 96 271 70 q 271 32 245 -2 q 219 -35 182 -35 q 155 -35 135 -19 q 116 -2 116 21 z"},"<":{"x_min":0,"x_max":610,"ha":610,"o":"m 346 301 q 373 269 443 198 q 461 183 461 160 q 461 136 439 116 q 417 95 388 95 q 358 95 325 129 l 277 184 q 239 228 200 242 q 157 257 157 288 q 157 326 210 349 q 242 362 271 383 q 301 404 388 477 q 437 518 466 518 q 490 518 505 503 q 520 488 520 468 q 520 446 504 428 q 488 411 346 301 z"},"'":{"x_min":0,"x_max":434,"ha":434,"o":"m 351 509 q 346 484 326 469 q 306 453 278 453 q 254 453 239 468 q 224 482 224 501 q 224 516 243 612 q 262 709 269 728 q 276 747 293 760 q 310 773 337 773 q 362 773 377 760 q 393 746 393 726 q 393 714 384 687 q 383 682 382 679 z"},"=":{"x_min":0,"x_max":610,"ha":610,"o":"m 277 374 l 210 372 q 186 372 170 385 q 155 399 155 420 q 155 488 263 488 l 296 488 l 524 487 q 549 487 564 473 q 579 459 579 440 q 579 414 558 394 q 537 374 506 374 z m 461 136 l 421 136 q 396 136 364 137 l 308 138 q 264 139 224 136 q 167 132 146 143 q 124 154 124 181 q 124 206 140 226 q 155 245 196 248 q 237 251 286 251 l 326 251 q 350 251 382 250 l 439 249 l 473 249 q 507 249 521 234 q 534 219 534 201 q 534 176 513 156 q 492 136 461 136 z"},"a":{"x_min":0,"x_max":556,"ha":556,"o":"m 368 17 q 272 -27 224 -27 q 23 -27 23 158 q 23 312 130 411 q 238 510 368 510 q 416 510 475 482 q 534 454 534 418 q 534 396 518 379 q 501 340 490 266 q 479 191 479 154 q 479 133 481 124 l 496 76 q 507 38 507 29 q 507 11 485 -11 q 463 -32 431 -32 q 410 -32 368 17 z m 385 384 q 371 393 357 393 q 285 393 223 332 q 161 271 161 175 q 161 89 236 89 q 298 89 351 129 q 356 313 385 384 z"},"L":{"x_min":0,"x_max":551,"ha":551,"o":"m 24 61 l 58 214 q 103 415 145 686 q 149 712 171 732 q 194 753 224 753 q 250 753 266 737 q 282 722 282 697 q 282 678 257 541 l 218 333 q 205 262 164 87 q 279 88 470 144 q 482 147 492 147 q 521 147 535 129 q 549 111 549 91 q 549 47 507 24 q 464 0 338 -22 q 212 -45 126 -45 q 22 -45 22 35 q 22 47 24 61 z"},"3":{"x_min":0,"x_max":610,"ha":610,"o":"m 508 396 q 584 349 584 257 q 584 145 496 61 q 408 -22 290 -22 q 213 -22 160 5 q 107 33 89 71 q 71 108 71 127 q 71 156 95 177 q 119 199 150 199 q 181 199 195 174 l 220 134 q 229 121 251 112 q 274 104 310 104 q 358 104 401 136 q 443 167 443 224 q 443 322 299 336 q 236 343 236 386 q 236 414 258 433 q 280 451 309 457 l 411 479 q 490 504 490 560 q 490 619 387 619 q 351 619 297 590 q 248 561 231 561 q 206 561 190 578 q 174 595 174 616 q 174 664 262 704 q 350 745 395 745 q 500 745 559 702 q 619 659 619 581 q 619 526 593 475 q 567 424 508 396 z"},";":{"x_min":0,"x_max":434,"ha":434,"o":"m 235 439 l 235 472 q 236 490 243 504 q 250 519 271 534 q 291 549 316 549 q 378 549 378 482 q 378 430 352 407 q 327 385 294 385 q 267 385 251 400 q 235 416 235 439 z m 151 -95 q 126 -95 111 -81 q 96 -67 96 -44 q 96 -4 159 65 q 221 134 258 134 q 281 134 297 119 q 312 104 312 83 q 312 48 252 -2 q 226 -24 222 -40 q 206 -95 151 -95 z"},"J":{"x_min":0,"x_max":665,"ha":665,"o":"m 578 603 l 575 590 q 573 582 571 568 q 531 311 469 126 q 408 -59 292 -59 q 201 -59 123 3 q 44 64 44 142 q 44 244 127 244 q 187 244 187 190 q 187 180 185 169 q 180 140 224 107 q 267 74 312 74 q 327 74 344 122 q 360 170 394 344 q 429 518 438 600 l 370 600 l 312 602 q 284 602 267 618 q 250 635 250 658 q 250 735 350 735 l 370 735 q 383 735 398 734 l 427 733 q 457 732 540 736 q 603 740 633 740 q 752 740 752 679 q 752 649 730 625 q 708 600 674 600 l 616 603 z"},"V":{"x_min":0,"x_max":675,"ha":675,"o":"m 341 205 l 502 500 l 562 617 q 574 641 615 695 q 656 749 698 749 q 724 749 741 732 q 758 715 758 692 q 758 666 738 644 q 703 603 677 555 l 439 117 q 395 34 364 -3 q 334 -39 298 -39 q 276 -39 261 -30 q 247 -21 239 -3 q 230 15 209 130 q 188 245 168 418 q 162 462 148 550 q 139 609 139 647 q 139 703 166 723 q 192 743 220 743 q 241 743 255 734 q 268 724 274 708 q 280 692 282 651 q 284 609 287 590 q 291 570 306 452 q 320 319 341 205 z"},"\"":{"x_min":0,"x_max":438,"ha":438,"o":"m 107 516 q 107 538 125 633 q 131 662 134 684 q 141 725 146 738 q 152 750 170 763 q 188 775 212 775 q 237 775 252 762 q 267 749 267 729 q 267 716 251 636 q 236 558 236 531 q 236 488 210 471 q 185 455 163 455 q 107 455 107 516 z m 454 509 q 450 486 430 470 q 411 453 382 453 q 357 453 343 467 q 328 480 328 501 q 328 502 347 621 q 367 740 391 756 q 415 773 440 773 q 465 773 480 760 q 495 746 495 726 q 495 717 490 698 q 486 683 485 679 z"},"7":{"x_min":0,"x_max":610,"ha":610,"o":"m 481 603 q 412 603 322 605 l 197 608 q 162 609 146 614 q 129 620 121 631 q 112 642 112 660 q 112 693 136 714 q 160 736 190 736 q 276 736 374 732 q 497 729 559 729 l 648 729 q 677 729 694 718 q 712 707 712 688 q 712 668 694 644 q 676 619 615 562 q 530 483 441 345 q 353 207 297 101 q 264 36 236 2 q 207 -32 172 -32 q 147 -32 130 -17 q 113 -1 113 22 q 113 44 147 103 l 279 329 q 375 495 481 603 z"},"S":{"x_min":0,"x_max":693,"ha":693,"o":"m 39 113 q 39 153 63 178 q 87 203 122 203 q 165 203 180 158 q 198 98 296 98 q 375 98 468 135 q 561 172 561 236 q 561 279 526 296 q 492 312 378 314 q 290 316 225 350 q 160 384 160 441 q 160 537 276 626 q 392 716 524 716 q 574 716 646 692 q 717 667 717 636 q 717 613 694 589 q 671 564 638 564 q 613 564 570 574 q 530 584 503 584 q 439 584 374 552 q 310 520 310 482 q 310 450 373 440 l 486 435 q 553 432 604 409 q 655 387 680 347 q 706 307 706 252 q 706 116 575 43 q 445 -30 271 -30 q 160 -30 99 12 q 39 55 39 113 z"},"}":{"x_min":0,"x_max":366,"ha":366,"o":"m 221 276 q 201 294 190 326 q 180 358 180 379 q 180 390 188 428 q 221 597 221 612 q 221 663 179 667 q 128 672 107 679 q 86 687 86 712 q 86 749 120 771 q 154 793 197 793 q 258 793 303 755 q 349 716 349 632 q 349 590 309 385 q 341 368 367 336 q 394 305 394 279 q 394 250 365 230 l 339 213 q 291 180 284 165 q 278 150 278 111 q 278 10 208 -89 q 139 -188 48 -188 q -38 -188 -38 -136 q -38 -113 -27 -94 q -16 -76 2 -69 q 20 -62 68 -62 q 97 -62 123 -3 q 149 55 149 119 q 153 173 164 199 q 175 226 221 276 z"},"Z":{"x_min":0,"x_max":693,"ha":693,"o":"m 197 96 q 457 107 540 107 q 627 107 657 95 q 688 83 688 56 q 688 23 663 1 q 639 -21 604 -21 q 589 -21 561 -19 l 537 -18 l 73 -25 q 41 -25 24 -10 q 7 5 7 28 q 7 52 24 83 q 41 115 92 170 q 144 225 279 374 q 414 523 523 610 q 447 605 406 605 l 208 605 q 164 605 154 607 q 144 608 130 622 q 116 636 116 657 q 116 737 227 737 q 273 737 327 733 q 380 729 427 729 l 474 729 l 651 732 q 788 732 788 677 q 788 653 767 629 q 747 605 711 584 l 637 541 q 562 491 467 393 q 372 294 199 98 z"},"x":{"x_min":0,"x_max":590,"ha":590,"o":"m 420 242 l 541 60 q 551 44 551 29 q 551 3 527 -20 q 503 -43 474 -43 q 443 -43 423 -16 q 402 11 311 152 q 268 116 169 37 q 135 12 124 0 q 99 -22 72 -22 q 47 -22 31 -5 q 14 12 14 33 q 14 54 30 73 q 46 93 102 134 q 133 157 247 253 q 235 271 225 291 q 184 364 150 399 q 130 418 130 438 q 130 463 154 487 q 177 511 208 511 q 243 511 292 441 l 355 341 q 494 442 536 488 q 562 518 595 518 q 619 518 636 501 q 653 484 653 463 q 653 439 625 409 q 598 380 586 372 q 574 364 506 311 z"},")":{"x_min":0,"x_max":366,"ha":366,"o":"m 62 -211 q 40 -211 24 -196 q 8 -181 8 -161 q 8 -141 21 -124 q 34 -108 75 -81 q 174 -17 223 114 q 271 246 271 371 q 271 434 261 487 q 251 540 237 572 q 222 604 190 641 q 147 690 147 714 q 147 739 170 761 q 192 784 222 784 q 254 784 304 728 q 354 672 382 578 q 411 483 411 387 q 411 259 359 106 q 307 -46 211 -128 q 115 -211 62 -211 z"},"&":{"x_min":0,"x_max":654,"ha":654,"o":"m 479 60 q 368 -21 250 -21 q 163 -21 101 31 q 39 84 39 161 q 39 215 66 266 q 94 317 136 348 q 178 379 314 458 q 300 512 300 561 q 300 641 356 702 q 413 764 489 764 q 543 764 577 731 q 610 698 610 647 q 610 521 459 421 q 480 361 515 288 l 542 365 q 547 378 564 395 q 582 411 605 411 q 630 411 643 392 q 656 373 656 349 q 656 320 638 268 q 621 217 580 159 q 636 49 636 18 q 636 -4 613 -25 q 589 -46 561 -46 q 549 -46 539 -42 q 529 -38 522 -30 q 515 -21 504 3 z m 433 518 q 496 571 496 619 q 496 644 471 644 q 452 644 437 625 q 422 606 422 576 q 422 546 433 518 z m 349 352 l 254 297 q 210 271 188 241 q 167 210 167 179 q 167 145 196 123 q 226 100 270 100 q 351 100 426 162 q 400 213 349 352 z"},"_":{"x_min":0,"x_max":627,"ha":627,"o":"m -63 -168 l -49 -78 l 653 -78 l 639 -168 z"},"v":{"x_min":0,"x_max":486,"ha":486,"o":"m 280 201 q 315 258 378 369 q 433 473 454 493 q 475 513 504 513 q 529 513 547 498 q 564 482 564 459 q 564 448 551 421 q 538 395 507 343 q 476 291 426 210 l 336 65 q 321 43 315 28 q 308 14 298 3 q 289 -8 274 -14 q 260 -20 245 -20 q 195 -20 183 31 q 167 103 84 425 q 81 433 81 442 q 81 474 106 495 q 132 516 162 516 q 201 516 214 482 q 227 449 280 201 z"},"O":{"x_min":0,"x_max":798,"ha":798,"o":"m 62 231 q 62 333 127 458 q 192 583 303 662 q 414 740 537 740 q 834 740 834 501 q 834 309 698 140 q 562 -30 372 -30 q 235 -30 148 43 q 62 117 62 231 z m 202 255 q 202 188 256 146 q 310 103 393 103 q 512 103 603 228 q 693 352 693 483 q 693 550 653 579 q 613 607 516 607 q 437 607 363 550 q 290 494 246 406 q 202 317 202 255 z"},"(":{"x_min":0,"x_max":366,"ha":366,"o":"m 191 154 q 191 -15 271 -76 q 320 -115 320 -146 q 320 -170 298 -190 q 275 -211 248 -211 q 192 -211 121 -124 q 50 -37 50 132 q 50 315 119 468 q 188 621 275 703 q 362 784 404 784 q 429 784 444 768 q 459 752 459 730 q 459 712 445 692 q 430 672 362 617 q 295 556 243 425 q 191 294 191 154 z"},"C":{"x_min":0,"x_max":619,"ha":619,"o":"m 586 723 q 612 744 641 744 q 694 744 694 672 q 694 585 671 552 q 647 520 608 520 q 563 520 550 566 q 544 587 536 592 q 528 596 497 596 q 422 596 304 462 q 185 328 185 228 q 185 184 214 153 q 242 121 288 121 q 329 121 364 135 q 398 148 472 194 q 514 219 533 219 q 559 219 576 203 q 592 186 592 161 q 592 136 575 117 q 557 97 499 61 q 440 25 382 7 q 323 -12 267 -12 q 167 -12 107 53 q 46 118 46 207 q 46 364 210 547 q 374 729 518 729 q 562 729 586 723 z"},"W":{"x_min":0,"x_max":1040,"ha":1040,"o":"m 594 15 q 582 63 578 132 q 574 200 569 420 q 523 323 474 244 q 399 125 373 60 q 375 52 375 46 q 375 17 348 -6 q 322 -28 285 -28 q 249 -28 228 -10 q 208 9 210 44 l 205 102 l 192 277 q 187 346 174 429 q 160 513 132 659 q 130 667 130 674 q 130 702 154 723 q 178 745 211 745 q 233 745 249 734 q 266 722 277 688 q 288 654 303 530 q 318 405 329 250 q 385 349 444 475 q 518 635 562 683 q 607 731 637 731 q 666 731 686 708 q 706 686 706 589 q 706 569 703 491 q 699 399 715 185 q 760 260 832 390 l 911 534 q 917 547 950 624 q 999 745 1066 745 q 1094 745 1110 730 q 1126 715 1126 691 q 1126 681 1122 668 q 1117 656 1094 613 q 1070 570 1050 529 q 1031 488 1000 433 q 968 378 941 333 l 839 163 q 808 111 790 76 q 746 -6 721 -26 q 696 -47 663 -47 q 632 -47 611 -29 q 590 -12 594 15 z"},"A":{"x_min":0,"x_max":731,"ha":731,"o":"m 520 209 q 482 204 399 198 q 317 193 279 186 q 191 40 168 14 q 145 -11 110 -11 q 84 -11 67 5 q 49 21 49 44 q 49 70 149 223 q 146 230 146 236 q 146 272 201 288 q 529 722 575 722 q 627 722 637 657 q 637 566 649 376 q 661 186 666 164 q 671 143 679 114 q 687 80 687 61 q 687 31 662 8 q 637 -15 605 -15 q 544 -15 520 209 z m 502 486 q 438 397 370 308 q 395 313 440 316 q 494 319 508 321 q 508 385 502 486 z"},"f":{"x_min":0,"x_max":508,"ha":508,"o":"m 361 501 q 427 507 456 507 q 547 507 537 445 q 527 380 430 383 q 399 384 336 379 q 326 327 314 247 q 298 132 295 116 q 281 26 262 -26 q 242 -78 189 -78 q 162 -78 144 -61 q 127 -43 131 -16 q 132 -10 134 -4 q 157 66 167 127 l 205 372 q 196 371 172 368 q 153 365 144 365 q 114 365 97 383 q 80 400 85 429 q 92 475 142 489 q 165 495 229 497 q 231 506 244 552 q 275 661 329 714 q 396 781 513 781 q 603 781 592 717 q 582 653 499 653 q 440 653 407 612 q 382 581 365 516 z"},"Q":{"x_min":0,"x_max":876,"ha":876,"o":"m 557 -34 q 470 -63 394 -63 q 257 -63 159 34 q 61 132 61 268 q 61 453 219 596 q 377 740 581 740 q 737 740 817 650 q 896 560 896 406 q 896 267 846 184 q 797 101 698 36 l 775 -43 l 823 -87 q 847 -108 847 -137 q 847 -166 822 -190 q 797 -214 766 -214 q 729 -214 557 -34 z m 442 73 q 387 134 387 175 q 387 206 413 229 q 438 252 469 252 q 503 252 522 222 q 552 174 602 125 q 674 164 714 218 q 755 271 755 380 q 755 482 707 543 q 659 605 559 605 q 415 605 308 507 q 202 409 202 290 q 202 199 271 131 q 341 62 442 73 z"},"w":{"x_min":0,"x_max":684,"ha":684,"o":"m 378 287 q 364 265 313 165 q 244 29 217 -4 q 190 -37 157 -37 q 138 -37 120 -8 q 102 21 92 78 q 83 135 83 377 q 83 421 88 447 q 93 472 115 490 q 137 508 166 508 q 203 508 215 485 q 227 462 223 389 l 220 294 l 220 196 q 294 341 342 443 q 370 506 427 506 q 454 506 469 487 q 485 469 488 417 q 491 365 492 306 l 495 168 l 622 472 q 639 507 686 507 q 711 507 729 491 q 748 476 748 453 q 748 438 736 415 q 725 392 658 241 q 592 91 565 49 q 538 6 513 -17 q 489 -40 454 -40 q 416 -40 395 14 q 374 68 378 287 z"},"-":{"x_min":0,"x_max":610,"ha":610,"o":"m 215 206 q 184 206 164 219 q 144 233 144 256 q 144 285 171 304 q 198 323 234 323 l 465 328 q 497 328 518 315 q 540 301 540 278 q 540 250 519 231 q 498 212 448 209 q 398 206 215 206 z"},"E":{"x_min":0,"x_max":625,"ha":625,"o":"m 294 627 q 275 509 260 434 q 320 439 454 452 q 548 461 574 461 q 601 461 617 446 q 633 431 633 406 q 633 377 615 355 q 597 333 556 329 q 516 326 431 317 q 346 309 229 300 q 201 162 201 113 q 201 96 205 90 q 209 84 265 84 l 303 84 l 448 87 q 454 87 493 92 q 526 96 547 81 q 567 66 567 38 q 567 -14 526 -31 q 484 -48 295 -48 q 137 -48 101 -11 q 65 25 65 103 q 65 186 114 396 q 158 580 158 642 q 160 694 166 717 q 172 739 192 753 q 211 768 242 768 q 264 768 279 755 q 393 784 488 784 q 563 784 639 768 q 716 752 716 707 q 716 674 692 650 q 668 626 638 626 q 627 626 617 629 q 541 650 466 650 q 387 650 294 627 z"},"s":{"x_min":0,"x_max":487,"ha":487,"o":"m 389 398 q 369 401 349 401 q 227 401 227 367 q 227 348 290 318 q 395 265 429 230 q 463 195 463 148 q 463 76 393 24 q 323 -29 203 -29 q 134 -29 80 -5 q 26 18 26 59 q 26 120 93 120 q 116 120 155 106 q 199 92 219 92 q 325 92 325 135 q 325 159 265 187 q 163 235 129 266 q 94 297 94 347 q 94 419 157 470 q 219 521 409 521 q 504 521 504 462 q 504 431 488 394 q 473 357 441 357 q 392 357 389 398 z"},">":{"x_min":0,"x_max":610,"ha":610,"o":"m 387 314 q 242 438 242 488 q 242 508 264 529 q 287 549 314 549 q 342 549 359 528 q 451 416 532 374 q 563 356 563 331 q 563 303 530 276 q 497 250 375 170 q 253 91 219 91 q 195 91 179 106 q 164 122 164 142 q 164 175 203 198 q 242 222 387 314 z"},"l":{"x_min":0,"x_max":274,"ha":274,"o":"m 213 72 q 199 -21 131 -21 q 103 -21 86 -3 q 69 15 74 45 l 182 721 q 186 750 209 767 q 232 784 260 784 q 290 784 305 766 q 320 749 316 721 z"},"8":{"x_min":0,"x_max":610,"ha":610,"o":"m 192 383 q 141 429 141 495 q 141 590 222 668 q 304 745 420 745 q 515 745 565 702 q 615 660 615 582 q 615 448 513 396 q 600 344 600 237 q 600 112 510 43 q 420 -26 292 -26 q 186 -26 123 18 q 61 62 61 141 q 61 197 91 269 q 122 340 192 383 z m 359 451 q 421 466 450 489 q 479 512 479 560 q 479 625 399 625 q 333 625 305 589 q 276 552 276 516 q 276 472 359 451 z m 346 329 q 197 274 197 168 q 197 134 230 113 q 262 92 311 92 q 399 92 429 134 q 458 176 458 223 q 458 293 346 329 z"},"\\":{"x_min":0,"x_max":550,"ha":550,"o":"m 173 674 q 173 699 197 722 q 220 744 250 744 q 271 744 286 731 q 302 718 333 644 q 364 569 394 455 l 448 244 q 481 111 509 24 q 514 12 514 2 q 514 -23 491 -46 q 468 -69 438 -69 q 402 -69 388 -40 q 375 -10 348 83 q 268 412 247 473 q 226 535 179 646 q 173 660 173 674 z"},"e":{"x_min":0,"x_max":559,"ha":559,"o":"m 171 147 q 213 96 296 96 q 361 96 411 123 q 456 147 480 147 q 523 147 523 110 q 523 53 446 15 q 369 -22 277 -22 q 165 -22 101 29 q 37 79 37 165 q 37 284 122 397 q 208 510 348 510 q 440 510 492 479 q 543 449 543 393 q 543 339 503 303 q 462 267 347 220 z m 180 271 l 298 318 q 363 346 412 374 q 383 392 331 392 q 240 392 180 271 z"},"b":{"x_min":0,"x_max":593,"ha":593,"o":"m 150 3 q 129 -15 104 -15 q 80 -15 64 0 q 48 15 48 36 q 48 43 57 83 l 63 119 l 151 672 q 157 707 179 738 q 202 769 237 769 q 282 769 282 727 q 282 715 279 704 q 273 685 271 672 l 242 485 q 319 525 381 525 q 482 525 538 461 q 594 396 594 306 q 594 171 498 75 q 402 -21 276 -21 q 207 -21 150 3 z m 220 341 l 187 134 q 251 105 296 105 q 367 105 416 156 q 465 207 465 287 q 465 333 439 366 q 413 400 361 400 q 309 400 220 341 z"},"%":{"x_min":0,"x_max":820,"ha":820,"o":"m 149 622 q 149 703 218 752 q 287 802 342 802 q 415 802 452 760 q 489 719 489 661 q 489 577 427 531 q 365 484 289 484 q 224 484 187 524 q 149 564 149 622 z m 272 641 q 272 600 308 600 q 367 600 367 643 q 367 686 321 686 q 300 686 286 673 q 272 661 272 641 z m 281 215 l 398 392 q 467 497 574 671 q 640 783 690 783 q 712 783 728 769 q 743 755 743 735 q 743 714 725 692 q 704 665 645 568 q 629 543 501 347 l 362 132 q 350 115 317 60 q 285 5 266 -5 q 248 -15 231 -15 q 209 -15 194 -1 q 179 13 179 33 q 179 61 281 215 z m 457 123 q 457 203 516 267 q 575 331 663 331 q 734 331 783 294 q 831 256 831 199 q 831 122 768 56 q 705 -10 610 -10 q 541 -10 499 28 q 457 66 457 123 z m 581 143 q 581 105 639 105 q 684 105 696 133 q 708 162 708 179 q 708 193 690 204 q 672 216 645 216 q 611 216 596 191 q 581 167 581 143 z"},"m":{"x_min":0,"x_max":777,"ha":777,"o":"m 241 432 q 328 518 395 518 q 471 518 495 460 q 562 513 647 513 q 766 513 766 370 q 766 338 763 286 q 762 277 760 139 q 758 64 756 29 q 753 -7 729 -24 q 705 -42 678 -42 q 646 -42 633 -25 q 620 -9 620 39 l 631 298 q 631 386 612 386 q 602 386 554 362 q 507 337 492 325 q 484 283 480 165 q 474 16 465 -8 q 456 -32 435 -47 q 415 -61 391 -61 q 364 -61 348 -45 q 332 -29 332 -7 l 338 47 q 343 84 347 168 q 353 285 360 332 q 365 362 364 382 q 299 349 223 263 l 183 37 q 180 12 157 -4 q 135 -19 104 -19 q 51 -19 51 42 q 51 63 57 95 l 84 276 q 95 344 100 389 q 106 459 133 501 q 160 542 191 542 q 217 542 235 524 q 253 505 253 482 q 253 476 241 432 z"},"#":{"x_min":0,"x_max":843,"ha":843,"o":"m 196 307 q 253 409 298 496 q 276 495 241 496 l 203 497 q 169 498 158 501 q 147 503 137 516 q 126 528 126 545 q 126 573 143 592 q 160 611 180 614 q 201 617 357 621 l 404 712 q 412 728 432 750 q 453 773 471 773 q 528 773 528 728 q 528 698 489 622 l 663 622 q 712 736 730 762 q 749 787 784 787 q 807 787 823 772 q 840 757 840 736 q 840 719 793 623 l 819 624 q 917 628 917 573 q 917 548 904 530 q 891 512 869 504 q 846 497 783 497 l 741 497 l 647 307 l 717 307 q 808 307 808 254 q 808 224 787 206 q 766 187 735 187 l 711 187 q 694 187 665 186 l 594 186 q 565 124 533 48 q 510 -11 449 -11 q 400 -11 400 28 q 400 51 462 187 l 264 187 q 203 81 177 27 q 158 -11 114 -11 q 89 -11 73 4 q 57 19 57 39 q 57 47 71 74 q 84 102 129 187 l 74 187 q 48 187 35 205 q 22 223 22 241 q 22 270 40 289 q 58 309 112 308 z m 432 497 l 331 307 l 518 307 l 608 497 z"},",":{"x_min":0,"x_max":434,"ha":434,"o":"m 139 -168 q 115 -168 100 -153 q 84 -139 84 -120 q 84 -108 130 -36 q 175 35 194 52 q 213 69 238 69 q 262 69 278 55 q 293 41 293 21 q 293 6 220 -103 q 207 -122 198 -136 q 177 -168 139 -168 z"},"n":{"x_min":0,"x_max":523,"ha":523,"o":"m 250 451 q 333 523 412 523 q 535 523 535 381 q 535 343 526 291 l 521 256 q 508 183 508 126 q 508 60 505 32 q 501 5 480 -15 q 458 -35 428 -35 q 370 -35 370 21 q 370 145 377 202 q 384 260 401 331 q 408 358 408 370 q 408 394 392 394 q 345 394 293 339 q 241 284 214 227 q 188 169 182 81 q 180 39 174 22 q 168 6 148 -9 q 128 -24 101 -24 q 75 -24 59 -9 q 42 5 42 28 l 46 81 q 50 135 78 252 q 104 360 108 402 q 112 448 116 472 q 120 497 142 515 q 165 533 194 533 q 258 533 250 457 z"},"h":{"x_min":0,"x_max":578,"ha":578,"o":"m 264 447 q 345 517 438 517 q 503 517 536 489 q 569 460 569 392 q 569 378 567 362 q 547 225 547 104 q 547 61 550 42 q 552 20 529 -5 q 506 -30 471 -30 q 435 -30 422 -7 q 409 17 409 103 q 409 202 431 301 q 438 339 438 357 q 438 386 417 386 q 333 386 235 241 q 207 57 181 22 q 156 -12 118 -12 q 91 -12 74 4 q 57 21 57 42 q 57 58 67 78 q 74 94 104 279 l 146 536 l 149 552 q 167 620 167 674 q 167 719 175 738 q 183 756 203 769 q 224 782 248 782 q 307 782 307 706 q 307 648 282 542 q 272 501 264 447 z"},"z":{"x_min":0,"x_max":538,"ha":538,"o":"m 282 111 l 309 112 q 349 113 387 105 q 418 98 442 98 q 469 98 485 83 q 501 67 501 43 q 501 13 478 -9 q 455 -31 422 -31 q 397 -31 366 -24 q 333 -17 311 -17 q 199 -17 104 -35 q 90 -38 81 -38 q 55 -38 39 -24 q 22 -10 22 10 q 22 48 63 77 q 195 175 365 378 q 334 376 307 376 q 205 376 156 387 q 106 399 106 438 q 106 469 129 493 q 152 516 183 516 q 210 516 254 510 q 304 505 327 505 q 374 505 427 509 q 503 514 527 514 q 582 514 582 474 q 582 427 524 373 q 493 342 282 111 z"},"B":{"x_min":0,"x_max":630,"ha":630,"o":"m 535 373 q 581 348 607 305 q 634 262 634 219 q 634 111 502 44 q 371 -23 140 -23 q 110 -23 91 1 q 72 24 76 53 l 158 571 q 159 573 163 616 q 171 695 187 719 q 203 743 262 755 q 321 767 398 767 q 491 767 565 708 q 640 649 640 566 q 640 449 535 373 z m 377 635 l 326 635 q 308 635 301 634 l 285 530 l 268 428 q 300 423 322 423 q 399 423 450 457 q 502 491 502 543 q 502 577 463 606 q 425 635 377 635 z m 247 293 l 218 110 q 348 118 423 139 q 499 161 499 204 q 499 241 451 265 q 403 290 379 290 q 335 290 247 293 z"},"K":{"x_min":0,"x_max":611,"ha":611,"o":"m 191 11 q 187 -17 167 -35 q 148 -54 120 -54 q 87 -54 71 -31 q 55 -9 55 17 q 55 39 114 355 q 152 557 171 681 q 177 709 199 729 q 222 748 251 748 q 276 748 293 732 q 310 716 310 691 q 310 677 299 629 l 261 444 q 276 455 557 715 q 582 740 612 740 q 637 740 654 724 q 671 707 671 684 q 671 665 645 633 q 618 600 527 514 q 437 428 319 332 q 435 202 479 162 q 522 122 558 109 q 601 95 601 57 q 601 29 579 3 q 557 -22 525 -22 q 485 -22 425 15 q 365 52 226 216 z"},"R":{"x_min":0,"x_max":640,"ha":640,"o":"m 207 207 l 189 57 q 185 22 161 3 q 138 -17 108 -17 q 82 -17 66 -1 q 49 15 49 38 q 49 50 69 159 l 151 663 q 157 698 183 724 q 209 750 252 750 q 310 750 361 743 q 429 733 463 719 q 497 705 546 669 q 596 633 625 586 q 653 539 653 484 q 653 327 444 252 q 503 219 565 162 q 627 106 627 72 q 627 42 603 18 q 579 -6 547 -6 q 521 -6 501 15 q 374 154 207 207 z m 274 612 l 233 353 l 254 353 q 385 353 450 389 q 515 425 515 461 q 515 511 455 558 q 395 604 323 609 q 322 609 274 612 z"},"T":{"x_min":0,"x_max":696,"ha":696,"o":"m 490 598 l 467 370 q 456 250 447 198 q 445 187 442 149 q 437 58 406 27 q 376 -4 349 -4 q 322 -4 305 13 q 289 29 289 52 q 289 61 295 82 q 302 106 304 136 q 307 166 321 310 l 350 590 l 298 588 q 209 584 157 596 q 105 607 105 647 q 105 679 127 704 q 149 729 185 729 l 323 720 q 360 720 447 726 q 533 731 565 731 l 718 728 q 757 728 768 726 q 779 724 792 711 q 805 697 805 676 q 805 645 780 621 q 756 596 727 596 l 517 598 z"},"P":{"x_min":0,"x_max":533,"ha":533,"o":"m 207 276 q 193 209 168 51 q 164 23 143 6 q 122 -12 94 -12 q 66 -12 51 7 q 35 25 40 51 l 61 187 q 72 262 106 412 q 131 525 151 637 q 172 764 243 758 q 271 767 360 767 q 454 767 526 708 q 599 649 599 568 q 599 447 496 360 q 393 272 248 272 q 231 272 207 276 z m 330 641 l 302 641 q 291 641 281 640 l 271 571 q 266 538 233 402 q 254 398 268 398 q 355 398 412 444 q 469 490 469 548 q 469 584 426 613 q 383 641 330 641 z"},"|":{"x_min":0,"x_max":421,"ha":421,"o":"m 138 -56 l 151 24 l 271 777 q 275 803 296 820 q 317 837 344 837 q 372 837 386 820 q 401 803 397 777 l 257 -104 q 253 -127 234 -152 q 215 -177 183 -177 q 134 -177 134 -105 q 134 -84 138 -56 z"},"t":{"x_min":0,"x_max":471,"ha":471,"o":"m 428 385 l 389 385 q 354 385 331 384 q 328 375 326 368 q 324 360 322 352 q 284 225 284 161 q 284 104 307 104 q 330 104 355 130 q 380 156 402 156 q 422 156 440 139 q 459 123 459 95 q 459 47 402 13 q 346 -21 289 -21 q 153 -21 153 144 q 153 234 201 380 q 118 384 99 400 q 80 415 80 451 q 80 481 100 500 q 120 518 151 518 l 227 511 l 239 609 q 242 634 262 653 q 282 671 310 671 q 368 671 368 590 q 368 576 358 514 q 372 516 381 517 q 408 521 454 513 q 500 506 500 454 q 500 422 479 404 q 458 385 428 385 z"},"M":{"x_min":0,"x_max":883,"ha":883,"o":"m 324 436 q 308 401 252 246 q 197 92 181 37 q 150 -32 96 -32 q 70 -32 55 -16 q 41 0 41 24 q 41 86 106 230 q 145 315 164 362 l 243 577 q 282 684 312 713 q 342 742 377 742 q 426 742 438 693 q 449 645 452 452 q 454 292 466 209 q 535 338 625 567 l 669 679 q 697 749 763 749 q 793 749 812 717 q 830 686 830 587 l 829 471 q 829 408 833 333 q 837 258 847 189 q 865 54 865 29 q 865 4 840 -18 q 814 -41 783 -41 q 729 -41 716 36 l 708 154 q 706 183 705 456 q 696 440 685 411 q 622 261 591 201 l 543 111 q 502 32 478 5 q 453 -22 417 -22 q 375 -22 359 32 l 347 123 q 336 198 324 436 z"},"g":{"x_min":0,"x_max":531,"ha":531,"o":"m 352 26 q 295 -25 220 -25 q 131 -25 81 26 q 32 77 32 154 q 32 286 128 393 q 224 500 392 500 q 484 500 518 455 q 569 449 569 399 q 569 371 542 291 q 506 182 479 49 q 447 -131 369 -203 q 291 -275 149 -275 q -28 -275 -28 -209 q -28 -183 -9 -161 q 10 -140 42 -140 q 65 -140 104 -148 q 147 -157 177 -157 q 248 -157 289 -114 q 330 -70 352 26 z m 430 369 q 397 389 369 389 q 274 389 221 321 q 167 253 167 170 q 167 90 240 90 q 276 90 319 128 q 362 167 378 205 q 394 242 430 369 z"},"j":{"x_min":0,"x_max":403,"ha":403,"o":"m 174 646 q 174 679 201 705 q 229 730 263 730 q 292 730 311 712 q 330 694 330 667 q 330 636 302 610 q 275 584 240 584 q 211 584 193 602 q 174 621 174 646 z m 19 -93 l 32 -126 q 46 -160 67 -160 q 81 -160 92 -141 q 103 -122 109 -93 q 116 -64 136 179 q 154 405 160 439 q 166 473 189 496 q 212 519 242 519 q 264 519 284 503 q 305 487 305 470 l 269 117 q 253 -37 245 -93 q 236 -150 203 -197 q 169 -243 130 -268 q 90 -292 46 -292 q -31 -292 -71 -226 q -111 -159 -111 -137 q -111 -104 -87 -82 q -62 -60 -30 -60 q 0 -60 19 -93 z"},"i":{"x_min":0,"x_max":280,"ha":280,"o":"m 186 648 q 186 682 214 707 q 242 731 275 731 q 303 731 322 713 q 342 695 342 670 q 342 637 314 612 q 287 587 252 587 q 224 587 205 605 q 186 623 186 648 z m 135 -15 q 108 -15 92 0 q 76 16 76 40 l 90 139 q 103 240 125 337 q 142 409 147 447 q 151 474 174 493 q 196 512 225 512 q 250 512 266 497 q 282 482 282 458 q 282 438 261 345 q 239 251 228 165 q 217 78 212 48 q 206 19 184 2 q 163 -15 135 -15 z"},"y":{"x_min":0,"x_max":553,"ha":553,"o":"m 215 50 q 192 126 96 362 q 70 411 70 432 q 70 458 95 483 q 121 507 150 507 q 172 507 188 495 q 203 483 240 400 q 278 317 314 205 q 448 426 483 467 q 518 508 552 508 q 577 508 595 492 q 612 476 612 454 q 612 436 599 414 q 586 392 375 64 q 275 -87 227 -184 q 192 -252 176 -268 q 160 -283 130 -283 q 104 -283 87 -267 q 69 -251 69 -229 q 69 -187 215 50 z"},"@":{"x_min":0,"x_max":931,"ha":931,"o":"m 520 254 q 454 197 396 197 q 329 197 288 234 q 248 271 248 326 q 248 420 340 510 q 432 599 541 599 q 593 599 593 562 q 593 532 574 515 q 555 498 488 475 q 434 457 411 426 q 389 395 389 365 q 389 352 397 341 q 405 330 417 330 q 451 330 480 363 l 528 427 q 554 461 589 461 q 632 461 632 419 q 632 404 618 358 q 614 348 614 341 q 614 317 672 317 q 724 317 754 355 q 784 394 784 466 q 784 552 713 607 q 641 663 533 663 q 384 663 293 549 q 202 435 202 295 q 202 196 269 128 q 335 60 455 60 q 489 60 519 67 q 549 74 626 104 q 647 112 666 112 q 691 112 708 95 q 725 78 725 53 q 725 -2 619 -35 q 514 -68 436 -68 q 270 -68 165 31 q 61 130 61 277 q 61 474 200 635 q 339 796 554 796 q 716 796 821 708 q 925 619 925 488 q 925 361 854 275 q 782 189 645 189 q 577 189 520 254 z"},".":{"x_min":0,"x_max":434,"ha":434,"o":"m 135 7 q 135 36 164 60 q 192 83 227 83 q 258 83 277 66 q 296 50 296 25 q 296 -5 268 -28 q 240 -51 205 -51 q 176 -51 156 -33 q 135 -16 135 7 z"},"p":{"x_min":0,"x_max":535,"ha":535,"o":"m 180 -19 l 148 -218 q 144 -247 122 -265 q 100 -284 71 -284 q 44 -284 28 -269 q 13 -253 13 -230 q 13 -216 43 -36 q 89 244 101 408 q 105 470 133 503 q 160 537 195 537 q 222 537 238 519 q 253 500 250 474 l 248 469 q 319 505 385 505 q 551 505 551 315 q 551 147 465 59 q 379 -29 267 -29 q 220 -29 180 -19 z m 229 317 q 221 240 203 116 q 244 102 288 102 q 355 102 386 162 q 417 221 417 297 q 417 375 365 375 q 303 375 229 317 z"},"X":{"x_min":0,"x_max":724,"ha":724,"o":"m 515 352 q 536 316 555 280 q 633 138 683 70 q 694 55 694 35 q 694 6 668 -17 q 643 -41 612 -41 q 564 -41 504 70 q 465 148 434 201 q 421 222 406 250 q 156 14 125 -10 q 94 -34 68 -34 q 42 -34 25 -17 q 7 0 7 22 q 7 42 16 56 q 25 70 76 115 q 175 204 339 361 q 252 489 217 546 q 182 603 159 623 q 138 643 138 666 q 138 695 163 719 q 188 743 220 743 q 265 743 325 649 q 386 555 448 463 l 596 625 q 628 661 676 702 q 723 743 744 743 q 769 743 787 726 q 804 708 804 685 q 804 657 778 632 q 692 547 660 509 q 603 444 515 352 z"},"*":{"x_min":0,"x_max":530,"ha":530,"o":"m 439 554 q 504 475 504 443 q 504 421 482 401 q 459 381 431 381 q 404 381 380 409 q 354 454 319 494 q 204 398 167 398 q 144 398 127 413 q 111 428 111 449 q 111 474 136 495 q 161 516 193 537 q 215 552 217 555 q 124 585 112 598 q 101 611 101 628 q 101 654 123 675 q 145 696 174 696 q 188 696 279 662 q 282 683 284 698 q 289 738 306 758 q 324 778 359 778 q 384 778 399 764 q 414 750 414 730 l 406 667 q 498 680 533 680 q 558 680 572 666 q 587 651 587 631 q 587 605 566 584 q 544 563 439 554 z"},"Y":{"x_min":0,"x_max":635,"ha":635,"o":"m 301 233 q 243 347 175 489 l 103 642 q 99 652 99 665 q 99 697 123 720 q 147 743 179 743 q 219 743 233 710 l 322 509 q 372 397 389 371 q 500 538 592 699 q 619 743 663 743 q 689 743 707 726 q 724 708 724 687 q 724 668 682 603 q 662 572 632 521 q 469 250 387 130 q 306 10 280 -12 q 254 -34 227 -34 q 202 -34 184 -19 q 167 -4 167 21 q 167 37 189 74 q 212 112 301 233 z"},"c":{"x_min":0,"x_max":514,"ha":514,"o":"m 33 160 q 33 272 132 396 q 231 519 337 519 q 392 519 457 490 q 522 460 522 421 q 522 396 500 374 q 479 352 449 352 q 427 352 402 374 q 376 397 317 397 q 278 397 220 316 q 162 236 162 182 q 162 142 191 117 q 221 92 275 92 q 309 92 359 117 q 412 142 424 142 q 448 142 464 126 q 479 109 479 88 q 479 45 393 7 q 306 -31 256 -31 q 155 -31 94 22 q 33 75 33 160 z"},"!":{"x_min":0,"x_max":238,"ha":238,"o":"m 292 723 l 209 205 q 206 180 185 163 q 165 145 137 145 q 111 145 97 159 q 83 174 83 194 q 83 199 87 229 l 92 262 q 103 346 132 515 l 164 716 q 168 748 190 766 q 212 784 239 784 q 265 784 280 767 q 295 750 292 723 z m 42 43 q 42 71 66 92 q 90 112 118 112 q 147 112 165 85 q 183 58 183 35 q 183 9 159 -12 q 134 -32 107 -32 q 81 -32 62 -7 q 42 19 42 43 z"},"/":{"x_min":0,"x_max":512,"ha":512,"o":"m 76 -44 q 51 -44 35 -29 q 19 -14 19 6 q 19 53 217 326 q 352 514 408 616 q 470 732 500 763 q 530 794 551 794 q 569 794 588 781 q 607 767 607 742 q 607 719 586 688 q 566 658 509 556 q 452 454 325 278 q 265 195 248 169 q 231 144 140 -5 q 114 -44 76 -44 z"},"[":{"x_min":0,"x_max":376,"ha":376,"o":"m 283 612 l 175 -73 l 193 -73 q 221 -73 235 -74 l 261 -75 q 291 -76 301 -79 q 310 -82 320 -95 q 330 -107 330 -126 q 330 -158 309 -181 q 288 -204 257 -204 q 242 -204 215 -202 l 190 -201 q 176 -201 121 -204 q 33 -208 33 -147 q 33 -127 103 287 q 123 403 154 620 q 162 681 168 696 q 173 711 194 727 q 215 742 242 742 l 262 742 q 275 742 292 741 l 322 740 l 398 742 q 453 742 453 691 q 453 611 323 611 l 310 611 q 300 611 283 612 z"},"6":{"x_min":0,"x_max":610,"ha":610,"o":"m 292 459 q 348 479 385 479 q 492 479 550 430 q 607 381 607 289 q 607 157 519 61 q 431 -35 291 -35 q 181 -35 128 25 q 75 85 75 189 q 75 317 141 444 q 207 571 349 680 l 408 728 q 447 760 472 760 q 498 760 515 744 q 532 728 532 706 q 532 686 510 662 q 488 638 371 545 q 320 503 292 459 z m 224 305 q 210 250 210 204 q 210 83 312 83 q 388 83 429 140 q 471 197 471 261 q 471 347 351 347 q 298 347 224 305 z"},"r":{"x_min":0,"x_max":480,"ha":480,"o":"m 514 352 q 510 324 490 301 q 471 277 434 277 q 382 277 382 324 q 382 332 384 341 l 388 390 q 276 373 213 277 l 175 32 q 170 5 149 -14 q 127 -33 97 -33 q 70 -33 56 -15 q 42 3 46 32 l 96 352 l 108 422 q 114 456 121 471 q 129 485 146 496 q 163 506 185 506 q 240 506 241 450 q 338 515 443 515 q 523 515 523 427 q 523 408 519 385 z"},"2":{"x_min":0,"x_max":610,"ha":610,"o":"m 214 126 q 323 140 445 140 q 488 140 528 121 q 568 101 568 71 q 568 46 544 22 q 521 -1 491 -1 q 474 -1 454 3 q 433 7 417 7 l 274 8 q 255 8 216 3 q 187 -1 160 -1 q 110 -1 91 14 q 73 28 73 61 q 73 128 100 191 q 127 254 175 295 q 223 336 331 398 q 450 466 475 503 q 499 541 499 567 q 499 589 477 606 q 455 624 417 624 q 366 624 300 578 q 235 532 214 532 q 187 532 170 545 q 152 558 152 578 q 152 603 169 624 q 186 645 271 698 q 357 750 438 750 q 528 750 585 708 q 642 666 642 601 q 642 530 596 455 q 550 380 422 313 q 321 259 276 220 q 231 180 214 126 z"},"{":{"x_min":0,"x_max":366,"ha":366,"o":"m 193 276 q 228 218 228 178 q 228 155 215 119 q 201 74 201 34 q 201 -62 240 -62 q 292 -62 309 -72 q 327 -82 327 -110 q 327 -188 220 -188 q 146 -188 107 -135 q 68 -81 68 7 q 68 67 83 111 q 94 139 94 156 q 94 181 57 210 q 20 238 20 265 q 20 292 56 327 q 93 361 139 384 q 141 395 144 418 q 146 441 152 478 l 160 540 q 178 684 243 739 q 308 793 381 793 q 415 793 442 777 q 470 761 470 733 q 470 702 445 685 q 420 668 382 668 q 343 668 325 653 q 308 638 301 613 q 294 588 283 489 q 273 405 269 385 q 265 364 242 330 q 219 296 193 276 z"},"9":{"x_min":0,"x_max":610,"ha":610,"o":"m 425 265 q 366 244 324 244 q 220 244 159 298 q 97 351 97 438 q 97 565 187 657 q 277 750 435 750 q 533 750 593 686 q 652 622 652 528 q 652 412 571 257 q 489 102 340 28 q 190 -46 128 -46 q 104 -46 88 -30 q 72 -15 72 7 q 72 69 173 93 q 333 131 425 265 z m 500 429 q 516 479 516 505 q 516 559 485 596 q 454 633 402 633 q 322 633 277 582 q 233 531 233 469 q 233 425 267 397 q 302 369 357 369 q 440 369 500 429 z"}," ":{"x_min":0,"x_max":434,"ha":434,"o":""},"I":{"x_min":0,"x_max":546,"ha":546,"o":"m 419 591 q 398 496 375 352 l 340 133 l 406 134 q 448 134 475 134 q 502 133 516 117 q 530 101 530 80 q 530 48 507 25 q 483 2 452 2 l 417 2 q 397 2 370 1 l 321 0 q 243 -1 188 -9 q 125 -18 91 -18 q 65 -18 49 -2 q 33 14 33 37 q 33 68 56 92 q 80 115 112 115 q 153 115 201 122 q 250 467 285 596 l 178 593 q 154 592 136 607 q 119 623 119 648 q 119 678 140 701 q 162 724 200 727 q 239 729 344 729 q 407 729 492 720 q 577 711 597 707 q 616 703 627 691 q 638 678 638 657 q 638 621 614 599 q 589 577 557 577 q 533 577 419 591 z"},"H":{"x_min":0,"x_max":768,"ha":768,"o":"m 623 305 q 534 301 235 246 q 229 207 211 135 q 194 57 188 23 q 185 -4 162 -23 q 139 -41 112 -41 q 87 -41 72 -25 q 56 -9 56 14 q 56 36 88 171 q 118 288 187 695 q 190 722 212 740 q 234 759 263 759 q 287 759 303 744 q 319 729 319 705 q 319 688 297 583 l 286 519 q 275 459 268 425 q 260 398 256 375 l 451 411 q 550 430 643 433 q 650 466 678 609 q 685 652 719 704 q 754 755 785 755 q 809 755 826 739 q 844 724 844 702 q 844 689 838 677 q 824 644 815 598 q 812 587 809 573 q 801 539 800 531 q 796 503 773 393 q 747 267 741 211 l 726 56 q 723 20 700 -1 q 677 -21 646 -21 q 620 -21 603 -5 q 585 10 585 32 l 607 211 q 610 238 614 255 l 618 282 q 620 294 623 305 z"},"4":{"x_min":0,"x_max":610,"ha":610,"o":"m 376 202 l 182 202 q 36 202 36 258 q 36 293 100 352 q 120 370 211 474 l 418 711 q 463 762 526 762 q 555 762 575 745 q 595 729 590 698 l 533 331 q 593 329 613 319 q 634 308 634 281 q 634 195 512 202 q 493 45 474 16 q 456 -13 413 -13 q 354 -13 354 49 q 354 65 358 85 z m 432 550 q 387 491 251 331 l 397 331 z"},"~":{"x_min":0,"x_max":610,"ha":610,"o":"m 273 348 q 242 348 184 278 q 159 249 124 249 q 100 249 83 262 q 66 275 66 295 q 66 329 138 393 q 210 456 291 456 q 348 456 382 413 q 442 337 471 337 q 475 337 495 375 q 529 439 573 439 q 628 439 628 394 q 628 337 573 282 q 518 228 451 228 q 394 228 360 252 q 326 277 283 336 z"},"D":{"x_min":0,"x_max":722,"ha":722,"o":"m 136 -5 q 108 -4 92 12 q 77 29 77 51 q 77 69 104 208 q 136 350 170 612 q 178 666 182 687 q 187 708 215 734 q 244 760 274 760 q 291 760 351 729 q 418 693 435 689 q 567 644 653 548 q 739 453 739 341 q 739 204 628 78 q 518 -48 298 -48 q 203 -48 136 -5 z m 300 591 l 224 107 q 258 83 319 83 q 429 83 477 113 q 525 143 563 198 q 600 253 600 319 q 600 376 565 425 q 530 473 477 505 q 423 537 300 591 z"},"^":{"x_min":0,"x_max":610,"ha":610,"o":"m 415 672 q 278 548 233 548 q 209 548 193 563 q 178 578 178 598 q 178 623 205 643 q 233 664 375 785 q 397 804 423 804 q 451 804 480 783 q 509 761 580 681 q 596 663 608 650 q 622 635 622 619 q 622 596 599 576 q 576 557 547 557 q 520 557 499 581 q 478 605 415 672 z"},"0":{"x_min":0,"x_max":610,"ha":610,"o":"m 80 259 q 80 474 186 616 q 292 759 443 759 q 550 759 609 688 q 668 617 668 495 q 668 402 627 265 q 586 127 507 54 q 427 -19 305 -19 q 80 -19 80 259 z m 213 263 q 213 107 325 107 q 434 107 482 242 q 530 377 530 493 q 530 566 504 599 q 478 632 423 632 q 355 632 303 572 q 251 512 232 422 q 213 331 213 263 z"},"F":{"x_min":0,"x_max":607,"ha":607,"o":"m 280 620 q 264 511 254 458 q 329 477 380 477 q 492 477 541 467 q 590 458 590 417 q 590 382 566 359 q 541 335 511 335 q 475 335 434 339 q 395 343 359 343 q 324 343 232 321 l 184 15 q 180 -12 156 -32 q 131 -52 100 -52 q 72 -52 57 -33 q 42 -14 47 15 l 135 574 q 140 605 145 631 q 151 660 156 689 q 161 718 182 737 q 204 756 234 756 q 253 756 265 749 q 379 768 458 768 q 516 768 603 742 q 690 717 690 683 q 690 660 667 635 q 643 610 612 610 q 601 610 588 615 q 527 635 437 635 q 384 635 280 620 z"},"`":{"x_min":0,"x_max":556,"ha":556,"o":"m 167 748 q 167 771 189 791 q 211 811 240 811 q 279 811 338 739 q 396 667 396 634 q 396 612 375 594 q 353 575 323 575 q 291 575 276 600 q 228 683 188 712 q 167 728 167 748 z"},"k":{"x_min":0,"x_max":540,"ha":540,"o":"m 275 222 q 220 187 204 178 q 187 100 178 48 q 173 20 151 1 q 129 -17 101 -17 q 42 -17 42 40 q 42 63 68 180 q 86 262 92 296 l 149 619 q 151 637 154 668 q 158 718 163 735 q 169 752 189 768 q 210 783 238 783 q 263 783 279 768 q 295 753 295 729 l 289 667 q 282 595 258 479 q 245 416 234 343 q 311 396 466 529 q 491 551 518 551 q 542 551 560 534 q 578 517 578 495 q 578 476 568 460 q 559 445 498 393 q 438 341 392 306 l 473 175 q 526 88 526 50 q 526 24 501 2 q 476 -20 445 -20 q 406 -20 393 17 q 372 72 292 194 q 276 219 275 222 z"},"u":{"x_min":0,"x_max":520,"ha":520,"o":"m 521 282 l 488 55 q 485 37 484 24 q 480 -3 457 -21 q 435 -39 406 -39 q 365 -39 352 -2 q 287 -25 220 -25 q 159 -25 121 -3 q 83 18 72 46 q 60 75 60 125 q 60 261 85 368 q 110 476 131 498 q 152 521 187 521 q 213 521 230 506 q 247 491 247 468 q 247 450 228 390 q 194 281 194 154 q 194 132 196 115 q 214 104 240 104 q 296 104 361 119 l 397 342 q 411 421 422 456 q 433 490 451 504 q 470 518 499 518 q 525 518 542 503 q 558 489 558 466 q 558 458 540 367 l 521 281 z"},"]":{"x_min":0,"x_max":376,"ha":376,"o":"m 182 -73 l 290 612 l 263 611 q 142 606 142 667 q 142 698 163 720 q 184 742 218 742 l 273 740 l 293 740 q 306 740 323 741 l 353 742 q 434 745 434 688 q 434 678 409 537 q 390 427 304 -130 q 292 -204 210 -204 l 145 -201 l 127 -201 l 58 -204 q 33 -204 19 -188 q 5 -173 5 -150 q 5 -121 27 -98 q 48 -75 79 -75 l 96 -75 l 165 -73 z"},"U":{"x_min":0,"x_max":737,"ha":737,"o":"m 271 590 l 256 505 q 250 466 243 434 l 235 393 q 232 375 229 364 q 220 304 220 262 q 220 98 363 98 q 452 98 524 213 q 596 327 646 640 q 652 675 677 701 q 703 726 738 726 q 791 726 791 675 q 791 642 740 422 q 690 203 585 84 q 481 -35 342 -35 q 82 -35 82 239 q 82 312 108 451 l 129 563 q 135 591 140 620 q 146 666 170 703 q 194 740 226 740 q 250 740 268 725 q 286 709 286 686 q 286 668 271 590 z"},"o":{"x_min":0,"x_max":526,"ha":526,"o":"m 46 172 q 46 294 135 400 q 224 506 363 506 q 443 506 489 451 q 534 397 534 308 q 534 179 450 75 q 367 -29 242 -29 q 155 -29 101 28 q 46 85 46 172 z m 183 191 q 183 150 203 125 q 224 100 262 100 q 325 100 363 154 q 400 207 400 291 q 400 377 334 377 q 270 377 227 315 q 183 252 183 191 z"},"N":{"x_min":0,"x_max":813,"ha":813,"o":"m 266 494 q 234 328 210 154 q 193 27 168 -6 q 142 -39 110 -39 q 77 -39 61 -21 q 44 -3 44 20 q 44 35 59 89 q 95 258 115 415 l 128 507 q 134 542 137 595 q 141 646 145 678 q 149 710 177 733 q 206 757 239 757 q 275 757 310 695 q 480 379 666 179 l 678 253 q 679 262 701 407 q 722 552 724 584 l 728 661 q 732 751 811 751 q 865 751 865 638 q 865 564 838 429 l 788 120 q 782 85 762 32 q 743 -20 685 -20 q 657 -20 629 3 q 602 26 501 150 q 401 274 266 494 z"},"+":{"x_min":0,"x_max":610,"ha":610,"o":"m 404 257 l 391 171 q 388 149 367 131 q 347 113 318 113 q 293 113 279 127 q 264 141 264 161 q 264 171 277 255 q 240 253 213 253 q 176 253 151 267 q 126 281 126 305 q 126 338 150 353 q 173 368 231 368 q 259 368 295 370 q 297 385 300 402 q 312 511 382 511 q 407 511 423 497 q 438 482 438 463 q 438 458 436 445 q 428 415 427 406 l 421 372 l 431 371 l 498 373 q 589 373 589 324 q 589 296 568 276 q 546 255 517 255 l 483 259 l 466 259 q 457 259 443 258 l 420 257 z"},"G":{"x_min":0,"x_max":680,"ha":680,"o":"m 659 287 q 605 145 490 55 q 375 -34 235 -34 q 13 -34 13 167 q 13 361 168 564 q 323 767 467 767 q 518 767 596 731 q 675 694 675 653 q 675 626 650 603 q 626 579 594 579 q 580 579 533 606 q 489 634 446 634 q 401 634 311 537 q 221 440 187 348 q 152 255 152 183 q 152 130 180 115 q 208 99 256 99 q 336 99 402 147 q 467 195 504 272 q 394 265 299 226 q 287 219 268 219 q 241 219 225 237 q 209 255 209 276 q 209 341 325 375 q 441 408 638 408 q 666 408 682 392 q 698 376 698 353 q 698 311 659 287 z"},"q":{"x_min":0,"x_max":520,"ha":520,"o":"m 300 -24 q 278 -29 262 -29 q 155 -29 94 21 q 32 71 32 154 q 32 225 71 313 q 110 402 198 460 q 286 519 412 519 q 437 519 452 506 q 472 517 488 517 q 513 517 529 500 q 546 482 546 458 q 546 430 514 288 q 491 184 449 38 q 407 -109 395 -180 q 387 -223 378 -238 q 368 -252 351 -262 q 333 -271 312 -271 q 256 -271 256 -213 q 256 -190 266 -155 q 275 -120 300 -24 z m 406 399 l 399 399 l 365 402 q 321 402 272 367 q 222 332 196 276 q 170 220 170 176 q 170 138 196 114 q 221 89 278 89 q 350 89 383 296 q 384 304 406 399 z"},"d":{"x_min":0,"x_max":587,"ha":587,"o":"m 479 491 q 516 671 531 725 q 547 778 604 778 q 659 778 659 725 q 659 699 613 503 q 574 341 558 224 q 542 108 542 69 q 542 45 539 32 q 535 18 514 1 q 493 -15 468 -15 q 431 -15 418 18 q 347 -22 270 -22 q 167 -22 109 38 q 51 97 51 182 q 51 310 138 416 q 226 522 369 522 q 441 522 479 491 z m 445 337 q 422 398 352 398 q 261 398 219 336 q 178 274 178 211 q 178 165 211 134 q 243 103 290 103 q 354 103 417 158 q 417 175 445 337 z"},"1":{"x_min":0,"x_max":610,"ha":610,"o":"m 146 0 q 61 0 61 48 q 61 124 175 124 l 186 124 q 191 124 197 123 l 266 556 q 217 527 206 527 q 181 527 164 543 q 147 560 147 583 q 147 614 189 647 l 251 687 l 318 735 q 355 761 393 761 q 430 761 430 722 q 430 706 398 544 q 370 402 345 244 l 326 125 l 358 125 q 384 125 400 110 q 416 96 416 73 q 416 44 394 22 q 373 0 339 0 z"},"5":{"x_min":0,"x_max":610,"ha":610,"o":"m 308 619 q 294 569 279 520 q 348 551 438 551 q 534 551 583 493 q 631 435 631 342 q 631 189 528 79 q 424 -31 269 -31 q 162 -31 110 18 q 58 67 58 103 q 58 131 82 153 q 107 175 138 175 q 155 175 166 168 q 177 161 204 127 q 228 96 289 96 q 373 96 434 163 q 496 229 496 329 q 496 425 417 425 q 383 425 352 416 q 321 406 298 391 q 275 375 222 323 q 192 298 162 298 q 136 298 120 314 q 104 330 104 351 q 104 359 112 389 q 173 621 173 643 q 173 648 169 669 q 166 691 166 696 q 166 720 189 734 q 213 749 245 749 l 303 745 l 538 745 q 547 745 576 747 q 604 750 615 750 q 667 750 667 701 q 667 668 641 648 q 615 628 580 624 q 545 619 454 619 z"}}}
